<svg width="24" height="24" viewBox="0 0 24 24" fill="none" xmlns="http://www.w3.org/2000/svg">
<path d="M21.9508 2.04919H2.04922C1.04998 2.04915 0.23999 2.85918 0.23999 3.85842V20.1415C0.23999 21.1407 1.04998 21.9508 2.04922 21.9507H3.56332C3.91278 21.9508 4.23104 21.7497 4.38086 21.434C6.16941 17.6579 11.375 17.234 13.7509 20.6709C13.9182 20.9129 14.0655 21.1681 14.1914 21.434C14.3412 21.7497 14.6595 21.9508 15.009 21.9507H21.9508C22.9499 21.9507 23.76 21.1407 23.76 20.1415V3.85842C23.76 2.85921 22.95 2.04919 21.9508 2.04919ZM6.5723 13.8092C6.5723 11.7201 8.83384 10.4144 10.6431 11.4589C12.4523 12.5035 12.4523 15.1149 10.6431 16.1595C10.2305 16.3976 9.76252 16.523 9.28614 16.523C7.78732 16.523 6.5723 15.308 6.5723 13.8092ZM21.9508 20.1415H15.554C14.7986 18.8427 13.6598 17.8095 12.294 17.1834C14.8944 14.868 14.0131 10.6058 10.7077 9.51149C7.40225 8.41719 4.15174 11.3115 4.85677 14.7212C5.05364 15.6734 5.55213 16.5368 6.2783 17.1834C4.91244 17.8095 3.77372 18.8427 3.01829 20.1415H2.04922V3.85842H21.9508V20.1415ZM3.85845 8.3815V6.57227C3.85845 6.07266 4.26346 5.66765 4.76307 5.66765H19.2369C19.7365 5.66765 20.1415 6.07266 20.1415 6.57227V17.4277C20.1415 17.9272 19.7365 18.3322 19.2369 18.3323H17.4277C16.7313 18.3322 16.2961 17.5784 16.6443 16.9753C16.8059 16.6954 17.1045 16.523 17.4277 16.523H18.3323V7.47688H5.66768V8.3815C5.66768 9.07788 4.91384 9.5131 4.31076 9.16492C4.03087 9.00333 3.85845 8.70468 3.85845 8.3815Z" fill="white"/>
</svg>
