<svg width="28" height="28" viewBox="0 0 28 28" fill="none" xmlns="http://www.w3.org/2000/svg">
<path d="M6.41663 3.33331H16.5319L22.3336 9.13507V23.9163C22.3336 24.0544 22.3015 24.1788 22.2115 24.306L22.1012 24.4349C21.9263 24.6097 21.7675 24.6663 21.5836 24.6663H6.41663C6.27855 24.6663 6.15508 24.6341 6.02795 24.5443L5.89905 24.4349C5.72396 24.2598 5.66663 24.1004 5.66663 23.9163V4.08331C5.66663 3.94529 5.69889 3.82171 5.7887 3.69464L5.89905 3.56573C6.07414 3.39065 6.23251 3.33331 6.41663 3.33331Z" stroke="white" stroke-width="2"/>
<path d="M12.6185 14.3029V18.4903C12.6233 18.7965 12.7484 19.0885 12.9666 19.3033C13.1848 19.5182 13.4788 19.6386 13.7851 19.6386C14.0913 19.6386 14.3853 19.5182 14.6035 19.3033C14.8218 19.0885 14.9468 18.7965 14.9516 18.4903L14.9554 13.0017C14.9586 12.74 14.9098 12.4803 14.8118 12.2375C14.7139 11.9948 14.5687 11.774 14.3847 11.5878C14.2008 11.4016 13.9817 11.2537 13.7402 11.1529C13.4987 11.052 13.2396 11 12.9778 11C12.7161 11 12.457 11.052 12.2155 11.1529C11.974 11.2537 11.7549 11.4016 11.5709 11.5878C11.387 11.774 11.2418 11.9948 11.1439 12.2375C11.0459 12.4803 10.9971 12.74 11.0003 13.0017V18.5273C10.995 18.8957 11.0629 19.2616 11.2002 19.6035C11.3376 19.9455 11.5415 20.2567 11.8001 20.5191C12.0588 20.7816 12.3671 20.99 12.707 21.1322C13.0469 21.2745 13.4118 21.3477 13.7802 21.3477C14.1487 21.3477 14.5136 21.2745 14.8535 21.1322C15.1934 20.99 15.5017 20.7816 15.7604 20.5191C16.019 20.2567 16.223 19.9455 16.3602 19.6035C16.4976 19.2616 16.5655 18.8957 16.5602 18.5273V13.3638" stroke="white" stroke-width="0.873393" stroke-miterlimit="10" stroke-linecap="round"/>
</svg>
