<svg width="155" height="36" viewBox="0 0 155 36" fill="none" xmlns="http://www.w3.org/2000/svg">
<path d="M10.5303 16.7158C11.0719 17.5791 11.4613 18.4085 11.6982 19.2041C11.9352 19.9912 12.0537 20.7868 12.0537 21.5908C12.0537 21.8447 12.0326 22.1198 11.9902 22.416C11.9479 22.7038 11.8844 22.9958 11.7998 23.292C11.7236 23.5882 11.6305 23.876 11.5205 24.1553C11.4189 24.443 11.3047 24.7012 11.1777 24.9297C10.8223 25.1751 10.416 25.4163 9.95898 25.6533C9.51042 25.8903 9.02799 26.1019 8.51172 26.2881C8.00391 26.4743 7.4707 26.6266 6.91211 26.7451C6.35352 26.8636 5.78646 26.9229 5.21094 26.9229C4.4069 26.9229 3.73828 26.8086 3.20508 26.5801C2.67188 26.3516 2.24447 26.0511 1.92285 25.6787C1.6097 25.3148 1.38965 24.9001 1.2627 24.4346C1.13574 23.9691 1.07227 23.5036 1.07227 23.0381C1.07227 22.5218 1.13151 22.0225 1.25 21.54C1.37695 21.0576 1.53353 20.6048 1.71973 20.1816C1.90592 19.75 2.10905 19.3522 2.3291 18.9883C2.54915 18.6159 2.75228 18.2773 2.93848 17.9727L3.43359 18.1631C3.13737 18.8402 2.90462 19.4665 2.73535 20.042C2.57454 20.609 2.49414 21.1634 2.49414 21.7051C2.49414 22.0944 2.57878 22.4456 2.74805 22.7588C2.91732 23.0635 3.14583 23.3216 3.43359 23.5332C3.72135 23.7533 4.05143 23.9225 4.42383 24.041C4.80469 24.1595 5.19824 24.2188 5.60449 24.2188C6.01921 24.2188 6.48047 24.1722 6.98828 24.0791C7.50456 23.9945 8.00814 23.8802 8.49902 23.7363C8.99837 23.5924 9.4554 23.4274 9.87012 23.2412C10.2933 23.0635 10.6234 22.8773 10.8604 22.6826C10.835 22.4287 10.7799 22.141 10.6953 21.8193C10.6107 21.4977 10.4964 21.1676 10.3525 20.8291C10.2171 20.4821 10.0521 20.1393 9.85742 19.8008C9.67122 19.4622 9.45964 19.1449 9.22266 18.8486L10.5303 16.7158ZM6.74707 15.9033L4.65234 14.6211L6.01074 12.8057L8.10547 14.1133L6.74707 15.9033ZM16.6621 23C16.5436 23 16.4294 22.9831 16.3193 22.9492C16.2093 22.9069 16.1035 22.8561 16.002 22.7969C15.9089 22.7376 15.8242 22.6784 15.748 22.6191C15.6803 22.5599 15.6296 22.5049 15.5957 22.4541C15.4518 22.2764 15.3545 22.0563 15.3037 21.7939C15.2529 21.5316 15.2106 21.21 15.1768 20.8291C15.0329 19.1787 14.8975 17.4987 14.7705 15.7891C14.6436 14.0794 14.5081 12.3825 14.3643 10.6982L16.0146 8.31152L16.6494 19.6738C16.6663 19.8685 16.7087 20.0335 16.7764 20.1689C16.8441 20.3044 16.9795 20.3721 17.1826 20.3721H19.4424V23H16.6621ZM24.3174 23C24.0127 23 23.7673 22.9873 23.5811 22.9619C23.4033 22.9365 23.251 22.873 23.124 22.7715C22.9971 22.6699 22.887 22.5176 22.7939 22.3145C22.7093 22.1113 22.612 21.832 22.502 21.4766H22.3242L21.4863 23H19.4551C19.3704 23 19.2604 22.9831 19.125 22.9492C18.9896 22.9069 18.8584 22.8477 18.7314 22.7715C18.6045 22.6953 18.4945 22.598 18.4014 22.4795C18.3083 22.361 18.2617 22.2256 18.2617 22.0732V21.3369C18.2617 21.1761 18.3083 21.0365 18.4014 20.918C18.4945 20.7995 18.6045 20.7021 18.7314 20.626C18.8584 20.5413 18.9896 20.4779 19.125 20.4355C19.252 20.3932 19.3577 20.3721 19.4424 20.3721H21.9053L22.248 17.3125L24.2158 16.2588L23.6699 19.585C23.6953 19.7542 23.7503 19.8939 23.835 20.0039C23.9196 20.1055 24.0212 20.1859 24.1396 20.2451C24.2666 20.2959 24.4062 20.3298 24.5586 20.3467C24.7194 20.3636 24.8844 20.3721 25.0537 20.3721H26.5645V23H24.3174ZM23.7969 27.1006L22.2607 26.1865L21.5625 27.1006L19.6582 25.9707L20.9658 24.2314L22.4766 25.1709L23.2002 24.2314L25.1045 25.3994L23.7969 27.1006ZM31.8838 23C31.613 23 31.3844 22.9873 31.1982 22.9619C31.012 22.9365 30.8512 22.873 30.7158 22.7715C30.5804 22.6699 30.4619 22.526 30.3604 22.3398C30.2673 22.1452 30.1742 21.8828 30.0811 21.5527H29.9033L29.1035 23H26.5645C26.446 23 26.319 22.9788 26.1836 22.9365C26.0482 22.8942 25.9212 22.835 25.8027 22.7588C25.6758 22.6826 25.5742 22.598 25.498 22.5049C25.4134 22.4118 25.3711 22.3145 25.3711 22.2129V21.21C25.3711 21.083 25.4134 20.9688 25.498 20.8672C25.5742 20.7572 25.6758 20.6683 25.8027 20.6006C25.9212 20.5244 26.0482 20.4694 26.1836 20.4355C26.319 20.3932 26.4417 20.3721 26.5518 20.3721H29.4209L29.0146 15.9033L30.6904 13.5166C30.6989 13.7028 30.7116 13.9525 30.7285 14.2656C30.7539 14.5788 30.7751 14.9258 30.792 15.3066C30.8174 15.6875 30.8428 16.0895 30.8682 16.5127C30.8936 16.9274 30.9189 17.3337 30.9443 17.7314C30.9782 18.1292 31.0036 18.5016 31.0205 18.8486C31.0459 19.1956 31.0671 19.4919 31.084 19.7373C31.1009 19.9658 31.1982 20.1309 31.376 20.2324C31.5537 20.3255 31.7907 20.3721 32.0869 20.3721H33.5977V23H31.8838ZM30.0049 28.8398L27.9102 27.5576L29.2686 25.7422L31.3633 27.0498L30.0049 28.8398ZM38.46 23C38.1553 23 37.9098 22.9873 37.7236 22.9619C37.5459 22.9365 37.3936 22.873 37.2666 22.7715C37.1396 22.6699 37.0296 22.5176 36.9365 22.3145C36.8519 22.1113 36.7546 21.832 36.6445 21.4766H36.4668L35.6289 23H33.5977C33.513 23 33.403 22.9831 33.2676 22.9492C33.1322 22.9069 33.001 22.8477 32.874 22.7715C32.7471 22.6953 32.637 22.598 32.5439 22.4795C32.4508 22.361 32.4043 22.2256 32.4043 22.0732V21.3369C32.4043 21.1761 32.4508 21.0365 32.5439 20.918C32.637 20.7995 32.7471 20.7021 32.874 20.626C33.001 20.5413 33.1322 20.4779 33.2676 20.4355C33.3945 20.3932 33.5003 20.3721 33.585 20.3721H36.0479L36.3906 17.3125L38.3584 16.2588L37.8125 19.585C37.8379 19.7542 37.8929 19.8939 37.9775 20.0039C38.0622 20.1055 38.1637 20.1859 38.2822 20.2451C38.4092 20.2959 38.5488 20.3298 38.7012 20.3467C38.862 20.3636 39.027 20.3721 39.1963 20.3721H40.707V23H38.46ZM37.9395 15.1162L36.4033 14.2021L35.7051 15.1162L33.8008 13.9863L35.1084 12.2471L36.6191 13.1865L37.3428 12.2471L39.2471 13.415L37.9395 15.1162ZM54.291 16.7539C54.3503 16.8809 54.4264 17.0671 54.5195 17.3125C54.6126 17.5579 54.7015 17.833 54.7861 18.1377C54.8792 18.4424 54.9596 18.7555 55.0273 19.0771C55.0951 19.3988 55.1289 19.695 55.1289 19.9658C55.1289 20.3467 55.0866 20.7318 55.002 21.1211C54.9173 21.5104 54.7861 21.8659 54.6084 22.1875C54.4053 22.543 54.2275 22.818 54.0752 23.0127C53.9229 23.2074 53.7493 23.3047 53.5547 23.3047C53.4277 23.3047 53.2288 23.2539 52.958 23.1523C52.6872 23.0508 52.391 22.9196 52.0693 22.7588C51.7562 22.5895 51.4388 22.4033 51.1172 22.2002C50.804 21.9886 50.529 21.7812 50.292 21.5781C50.0804 21.7728 49.7926 21.9378 49.4287 22.0732C49.0732 22.2087 48.6924 22.3187 48.2861 22.4033C47.8883 22.4795 47.4948 22.5345 47.1055 22.5684C46.7161 22.6022 46.3818 22.6191 46.1025 22.6191C45.764 22.6191 45.5355 22.5472 45.417 22.4033C45.307 22.2594 45.252 22.0902 45.252 21.8955H45.1377C44.9684 22.0817 44.7188 22.2425 44.3887 22.3779C44.0671 22.5133 43.7031 22.6276 43.2969 22.7207C42.8906 22.8138 42.459 22.8857 42.002 22.9365C41.5534 22.9788 41.1217 23 40.707 23C40.6393 23 40.5505 22.9873 40.4404 22.9619C40.3304 22.9365 40.2204 22.8942 40.1104 22.835C39.9919 22.7757 39.8945 22.7038 39.8184 22.6191C39.7337 22.5345 39.6914 22.4287 39.6914 22.3018V21.0195C39.6914 20.9434 39.7253 20.8672 39.793 20.791C39.8607 20.7064 39.9453 20.6344 40.0469 20.5752C40.1484 20.516 40.2585 20.4694 40.377 20.4355C40.4954 20.3932 40.6055 20.3721 40.707 20.3721C40.8594 20.3721 41.0371 20.3721 41.2402 20.3721C41.4434 20.3636 41.6423 20.3509 41.8369 20.334C42.1755 20.3086 42.5394 20.2705 42.9287 20.2197C43.318 20.1605 43.6904 20.0885 44.0459 20.0039C44.4014 19.9108 44.7188 19.8008 44.998 19.6738C45.2773 19.5384 45.4805 19.3818 45.6074 19.2041C45.8529 18.8486 46.0771 18.4932 46.2803 18.1377C46.4834 17.7738 46.6696 17.359 46.8389 16.8936L47.7021 17.1982C47.5837 17.6637 47.4567 18.0869 47.3213 18.4678C47.1943 18.8486 47.0589 19.1829 46.915 19.4707C46.8896 19.5215 46.86 19.585 46.8262 19.6611C46.7923 19.7373 46.7627 19.7965 46.7373 19.8389C46.7542 19.8727 46.8008 19.9023 46.877 19.9277C46.9531 19.9531 47.0378 19.9658 47.1309 19.9658C47.3424 19.9658 47.5794 19.9574 47.8418 19.9404C48.1042 19.915 48.3623 19.8812 48.6162 19.8389C48.8701 19.7881 49.1071 19.7288 49.3271 19.6611C49.5557 19.5934 49.7376 19.513 49.873 19.4199C50.0254 19.3099 50.1693 19.1533 50.3047 18.9502C50.4401 18.7386 50.5628 18.5101 50.6729 18.2646C50.7913 18.0192 50.8929 17.7738 50.9775 17.5283C51.0706 17.2829 51.1468 17.0713 51.2061 16.8936L52.0439 17.1348C52.0016 17.3548 51.9551 17.5791 51.9043 17.8076C51.8535 18.0361 51.7985 18.2604 51.7393 18.4805C51.6885 18.6921 51.6335 18.8952 51.5742 19.0898C51.515 19.2845 51.4557 19.458 51.3965 19.6104C51.5234 19.7204 51.7054 19.8516 51.9424 20.0039C52.1794 20.1478 52.4163 20.2874 52.6533 20.4229C52.8988 20.5583 53.123 20.6768 53.3262 20.7783C53.5378 20.8714 53.6774 20.918 53.7451 20.918C53.8128 20.918 53.8678 20.9095 53.9102 20.8926C53.9525 20.8672 53.9736 20.8333 53.9736 20.791C53.9736 20.7741 53.9694 20.7445 53.9609 20.7021C53.9609 20.6598 53.9567 20.6048 53.9482 20.5371C53.9229 20.3424 53.8551 20.0716 53.7451 19.7246C53.6351 19.3776 53.4447 18.9883 53.1738 18.5566L54.291 16.7539ZM63.6729 20.3721C63.639 20.2367 63.584 20.0885 63.5078 19.9277C63.4401 19.7585 63.3639 19.5892 63.2793 19.4199C63.1947 19.2507 63.1058 19.0856 63.0127 18.9248C62.9196 18.7555 62.8307 18.6032 62.7461 18.4678C62.6191 18.5947 62.4583 18.7428 62.2637 18.9121C62.0775 19.0729 61.8743 19.2337 61.6543 19.3945C61.4427 19.5553 61.2269 19.7077 61.0068 19.8516C60.7952 19.9954 60.6006 20.1182 60.4229 20.2197V20.3721H63.6729ZM57.7441 23C57.778 22.8138 57.8161 22.5895 57.8584 22.3271C57.9007 22.0648 57.943 21.8024 57.9854 21.54C58.0277 21.2692 58.07 21.0153 58.1123 20.7783C58.1546 20.5413 58.1885 20.3551 58.2139 20.2197L58.7979 20.0039C59.3988 19.6146 59.9743 19.2041 60.5244 18.7725C61.0745 18.3324 61.5654 17.9007 61.9971 17.4775C61.7686 17.1982 61.502 16.9105 61.1973 16.6143C60.901 16.318 60.5921 16.0345 60.2705 15.7637C59.9489 15.4844 59.6273 15.2305 59.3057 15.002C58.9925 14.765 58.7048 14.5618 58.4424 14.3926L58.3662 15.1416L56.0938 13.707C55.8145 13.5039 55.5944 13.2712 55.4336 13.0088C55.2812 12.738 55.2051 12.3656 55.2051 11.8916C55.2051 11.7816 55.2135 11.6419 55.2305 11.4727C55.2559 11.2949 55.2812 11.113 55.3066 10.9268C55.3405 10.7321 55.3786 10.5332 55.4209 10.3301C55.4632 10.127 55.5098 9.93652 55.5605 9.75879C55.9583 9.89421 56.3857 10.1016 56.8428 10.3809C57.2998 10.6602 57.7653 10.9818 58.2393 11.3457C58.7132 11.7096 59.1829 12.1074 59.6484 12.5391C60.1224 12.9707 60.571 13.4066 60.9941 13.8467C61.4173 14.2783 61.8066 14.7057 62.1621 15.1289C62.5176 15.5436 62.818 15.9245 63.0635 16.2715C63.1735 16.1445 63.2793 16.0007 63.3809 15.8398C63.4909 15.6706 63.5882 15.4801 63.6729 15.2686C63.7575 15.0485 63.8252 14.8115 63.876 14.5576C63.9352 14.2952 63.9648 14.0033 63.9648 13.6816C63.9648 13.6393 63.9606 13.5378 63.9521 13.377C63.9521 13.2077 63.9437 13.0173 63.9268 12.8057C63.9183 12.5856 63.9056 12.3571 63.8887 12.1201C63.8802 11.8831 63.8675 11.6758 63.8506 11.498C63.7236 11.3626 63.6263 11.2357 63.5586 11.1172C63.4909 10.9987 63.4401 10.8887 63.4062 10.7871C63.3724 10.6771 63.3512 10.5713 63.3428 10.4697C63.3343 10.3682 63.3301 10.2624 63.3301 10.1523L64.752 8.31152H64.9551C64.9635 8.48926 64.9805 8.65007 65.0059 8.79395C65.0397 8.93783 65.1159 9.09863 65.2344 9.27637C65.3613 9.44564 65.5433 9.64876 65.7803 9.88574C66.0173 10.1143 66.3431 10.402 66.7578 10.749L65.3359 12.6279V13.6055C65.3359 14.1048 65.2936 14.5449 65.209 14.9258C65.1243 15.3066 65.0143 15.6494 64.8789 15.9541C64.752 16.2503 64.6038 16.5169 64.4346 16.7539C64.2738 16.9824 64.113 17.194 63.9521 17.3887C64.0368 17.5495 64.1299 17.7399 64.2314 17.96C64.3415 18.1715 64.443 18.3958 64.5361 18.6328C64.6292 18.8698 64.7054 19.1068 64.7646 19.3438C64.8324 19.5807 64.8662 19.8008 64.8662 20.0039C64.8662 20.1139 64.862 20.2282 64.8535 20.3467C64.8451 20.4652 64.8324 20.5879 64.8154 20.7148C64.7646 21.0957 64.6927 21.4935 64.5996 21.9082C64.5065 22.3145 64.4134 22.6784 64.3203 23H57.7441ZM69.8809 23.3428L68.8525 10.9902L70.7314 8.31152C70.8076 9.81803 70.8711 11.1299 70.9219 12.2471C70.9811 13.3643 71.0277 14.3249 71.0615 15.1289C71.1038 15.9329 71.1335 16.6016 71.1504 17.1348C71.1758 17.6595 71.1927 18.0785 71.2012 18.3916C71.2181 18.7048 71.2266 18.9333 71.2266 19.0771C71.235 19.221 71.2393 19.3141 71.2393 19.3564C71.2393 19.7458 71.2054 20.1393 71.1377 20.5371C71.0785 20.9349 70.9938 21.3115 70.8838 21.667C70.7822 22.0225 70.6595 22.3483 70.5156 22.6445C70.3717 22.9323 70.2236 23.165 70.0713 23.3428H69.8809ZM90.333 29.4365C89.8675 29.6143 89.3385 29.8089 88.7461 30.0205C88.1536 30.2406 87.5612 30.4437 86.9688 30.6299C86.3848 30.8161 85.8346 30.9727 85.3184 31.0996C84.8105 31.2266 84.4043 31.29 84.0996 31.29C83.2786 31.29 82.5762 31.2096 81.9922 31.0488C81.4167 30.8965 80.93 30.6849 80.5322 30.4141C80.1344 30.1517 79.8171 29.8428 79.5801 29.4873C79.3431 29.1403 79.1611 28.7721 79.0342 28.3828C78.9072 28.002 78.8226 27.6126 78.7803 27.2148C78.7464 26.8255 78.7295 26.4531 78.7295 26.0977C78.7295 25.2598 78.8099 24.515 78.9707 23.8633C79.14 23.2116 79.3389 22.6445 79.5674 22.1621C79.8044 21.6712 80.054 21.2607 80.3164 20.9307C80.5872 20.5921 80.8242 20.3171 81.0273 20.1055C81.112 20.0208 81.2262 19.915 81.3701 19.7881C81.514 19.6611 81.6706 19.5299 81.8398 19.3945C82.0091 19.2507 82.1868 19.1152 82.373 18.9883C82.5677 18.8613 82.7497 18.7555 82.9189 18.6709C82.7243 18.6624 82.4873 18.6497 82.208 18.6328C81.9372 18.6159 81.6579 18.6032 81.3701 18.5947C81.0824 18.5778 80.8031 18.5651 80.5322 18.5566C80.2699 18.5397 80.0456 18.5312 79.8594 18.5312C79.5632 18.5312 79.2923 18.5863 79.0469 18.6963C78.8099 18.7979 78.6279 18.9417 78.501 19.1279L78.0566 18.8867C78.2344 18.3789 78.4121 17.9388 78.5898 17.5664C78.7676 17.194 78.958 16.8851 79.1611 16.6396C79.3727 16.3942 79.6055 16.2122 79.8594 16.0938C80.1133 15.9668 80.4053 15.9033 80.7354 15.9033C80.9215 15.9033 81.1289 15.9118 81.3574 15.9287C81.5944 15.9456 81.8483 15.971 82.1191 16.0049C82.6777 16.0641 83.4479 16.1276 84.4297 16.1953C85.4199 16.2546 86.6556 16.2842 88.1367 16.2842L87.1719 18.9121C87.0026 18.929 86.8206 18.946 86.626 18.9629C86.4313 18.9798 86.2113 19.0094 85.9658 19.0518C85.7204 19.0941 85.4453 19.1533 85.1406 19.2295C84.8444 19.3057 84.5059 19.403 84.125 19.5215C83.4479 19.7415 82.8301 20.0632 82.2715 20.4863C81.7214 20.901 81.2474 21.3835 80.8496 21.9336C80.4518 22.4753 80.1429 23.0592 79.9229 23.6855C79.7028 24.3203 79.5928 24.9593 79.5928 25.6025C79.5928 26.1019 79.7324 26.5293 80.0117 26.8848C80.291 27.2402 80.6761 27.5407 81.167 27.7861C81.6663 28.04 82.2503 28.2432 82.9189 28.3955C83.596 28.5479 84.3281 28.6621 85.1152 28.7383C85.9023 28.8229 86.7275 28.8779 87.5908 28.9033C88.4626 28.9372 89.3385 28.9541 90.2188 28.9541L90.333 29.4365ZM84.9248 25.9453L82.8301 24.6631L84.1885 22.8477L86.2832 24.1553L84.9248 25.9453ZM94.5605 14.9131C94.6113 14.6423 94.696 14.4688 94.8145 14.3926C94.9329 14.3079 95.0387 14.2656 95.1318 14.2656C95.2503 14.2656 95.3561 14.291 95.4492 14.3418C95.5423 14.3841 95.6185 14.4264 95.6777 14.4688C96.1686 14.8327 96.6003 15.2474 96.9727 15.7129C97.3535 16.1699 97.6709 16.6481 97.9248 17.1475C98.1787 17.6383 98.3691 18.1292 98.4961 18.6201C98.6315 19.1025 98.6992 19.5511 98.6992 19.9658C98.6992 20.262 98.6738 20.5498 98.623 20.8291C98.5723 21.0999 98.5046 21.3581 98.4199 21.6035C98.3438 21.849 98.2591 22.0775 98.166 22.2891C98.0814 22.4922 98.001 22.6699 97.9248 22.8223C97.7894 22.89 97.5609 22.9619 97.2393 23.0381C96.9261 23.1227 96.5664 23.1989 96.1602 23.2666C95.7539 23.3343 95.318 23.3893 94.8525 23.4316C94.3955 23.4824 93.9596 23.5078 93.5449 23.5078C93.1471 23.5078 92.8128 23.4909 92.542 23.457C92.2712 23.4232 92.0511 23.3512 91.8818 23.2412C91.721 23.1396 91.6025 22.9915 91.5264 22.7969C91.4502 22.5938 91.4121 22.3271 91.4121 21.9971C91.4121 21.8701 91.4248 21.7178 91.4502 21.54C91.4756 21.3623 91.5094 21.1761 91.5518 20.9814C91.6025 20.7783 91.6533 20.5752 91.7041 20.3721C91.7633 20.1605 91.8226 19.9616 91.8818 19.7754L92.3135 19.915C92.3135 20.2959 92.4277 20.554 92.6562 20.6895C92.8932 20.8164 93.2868 20.8799 93.8369 20.8799C94.1839 20.8799 94.5817 20.8587 95.0303 20.8164C95.4788 20.7741 95.902 20.7233 96.2998 20.6641C96.6976 20.6048 97.0319 20.5456 97.3027 20.4863C97.5736 20.4271 97.709 20.3763 97.709 20.334C97.709 20.1139 97.6497 19.8812 97.5312 19.6357C97.4128 19.3903 97.252 19.1491 97.0488 18.9121C96.8542 18.6751 96.6299 18.4466 96.376 18.2266C96.1305 18.0065 95.8724 17.8118 95.6016 17.6426C95.3392 17.4733 95.0768 17.3421 94.8145 17.249C94.5605 17.1475 94.332 17.0967 94.1289 17.0967L94.5605 14.9131ZM95.373 12.666L93.2783 11.3838L94.6367 9.56836L96.7314 10.876L95.373 12.666ZM105.859 20.3721C105.817 20.1943 105.737 19.9997 105.618 19.7881C105.5 19.568 105.364 19.3649 105.212 19.1787C105.06 18.9925 104.895 18.8402 104.717 18.7217C104.548 18.5947 104.387 18.5312 104.234 18.5312C104.031 18.5312 103.849 18.5693 103.688 18.6455C103.536 18.7217 103.401 18.8148 103.282 18.9248C103.172 19.0348 103.083 19.1533 103.016 19.2803C102.948 19.4072 102.897 19.5215 102.863 19.623C102.948 19.7669 103.113 19.9023 103.358 20.0293C103.612 20.1562 103.997 20.2536 104.514 20.3213C104.564 20.3298 104.645 20.3382 104.755 20.3467C104.873 20.3467 104.996 20.3509 105.123 20.3594C105.258 20.3594 105.39 20.3636 105.517 20.3721C105.652 20.3721 105.766 20.3721 105.859 20.3721ZM107.294 23C107.192 23.6771 106.998 24.3542 106.71 25.0312C106.431 25.7083 106.084 26.3135 105.669 26.8467C105.263 27.3883 104.806 27.8242 104.298 28.1543C103.79 28.4928 103.261 28.6621 102.711 28.6621C102.423 28.6621 102.08 28.6198 101.683 28.5352C101.285 28.4505 100.853 28.332 100.388 28.1797C99.9307 28.0358 99.4567 27.8581 98.9658 27.6465C98.4749 27.4434 97.9925 27.2191 97.5186 26.9736L97.7217 26.4785C97.984 26.5547 98.2168 26.6224 98.4199 26.6816C98.623 26.7409 98.8135 26.7874 98.9912 26.8213C99.1689 26.8636 99.3382 26.8932 99.499 26.9102C99.6683 26.9271 99.8376 26.9355 100.007 26.9355C100.312 26.9355 100.654 26.8848 101.035 26.7832C101.416 26.6816 101.805 26.542 102.203 26.3643C102.601 26.1865 102.994 25.9707 103.384 25.7168C103.782 25.4714 104.15 25.2005 104.488 24.9043C104.827 24.6081 105.123 24.2949 105.377 23.9648C105.639 23.6348 105.834 23.2962 105.961 22.9492C105.741 22.9492 105.5 22.9492 105.237 22.9492C104.983 22.9408 104.721 22.9238 104.45 22.8984C104.061 22.8561 103.697 22.7926 103.358 22.708C103.028 22.6149 102.736 22.4837 102.482 22.3145C102.237 22.1452 102.042 21.9336 101.898 21.6797C101.755 21.4173 101.683 21.0957 101.683 20.7148C101.683 20.0716 101.793 19.4707 102.013 18.9121C102.241 18.3451 102.521 17.8542 102.851 17.4395C103.181 17.0163 103.532 16.6862 103.904 16.4492C104.285 16.2038 104.632 16.0811 104.945 16.0811C105.25 16.0811 105.542 16.208 105.821 16.4619C106.109 16.7158 106.363 17.0459 106.583 17.4521C106.812 17.8584 106.998 18.3197 107.142 18.8359C107.294 19.3438 107.391 19.8558 107.434 20.3721H109.655V23H107.294ZM117.336 21.502C116.938 21.0618 116.646 20.5921 116.46 20.0928C116.282 19.5934 116.185 19.1322 116.168 18.709C115.686 18.709 115.258 18.7767 114.886 18.9121C114.513 19.0475 114.243 19.221 114.073 19.4326C114.217 19.5765 114.424 19.7542 114.695 19.9658C114.975 20.1689 115.267 20.3763 115.571 20.5879C115.884 20.7995 116.193 21.0026 116.498 21.1973C116.811 21.3835 117.074 21.5273 117.285 21.6289L117.336 21.502ZM119.583 23C119.261 23 118.995 22.9577 118.783 22.873C118.58 22.7884 118.356 22.6318 118.11 22.4033L117.184 24.0029C116.337 23.7321 115.533 23.3893 114.771 22.9746C114.01 22.5599 113.362 22.0986 112.829 21.5908C112.618 21.9124 112.431 22.1706 112.271 22.3652C112.11 22.5514 111.945 22.6911 111.775 22.7842C111.606 22.8773 111.42 22.9365 111.217 22.9619C111.014 22.9873 110.768 23 110.48 23H109.668C109.66 23 109.609 22.9958 109.516 22.9873C109.414 22.9788 109.346 22.9661 109.312 22.9492C109.219 22.9154 109.135 22.8773 109.059 22.835C108.974 22.7926 108.902 22.7376 108.843 22.6699C108.784 22.6022 108.737 22.5176 108.703 22.416C108.669 22.3145 108.652 22.1875 108.652 22.0352V21.3369C108.652 21.1761 108.686 21.0365 108.754 20.918C108.822 20.791 108.906 20.6895 109.008 20.6133C109.109 20.5286 109.219 20.4694 109.338 20.4355C109.456 20.3932 109.566 20.3721 109.668 20.3721H111.661C111.991 20.3721 112.224 20.2917 112.359 20.1309C112.444 20.0378 112.533 19.8896 112.626 19.6865C112.728 19.4834 112.838 19.2464 112.956 18.9756C113.091 18.654 113.269 18.3408 113.489 18.0361C113.718 17.7314 113.972 17.4606 114.251 17.2236C114.53 16.9782 114.835 16.7835 115.165 16.6396C115.504 16.4958 115.851 16.4238 116.206 16.4238C116.299 16.4238 116.401 16.4323 116.511 16.4492C116.621 16.4661 116.722 16.5127 116.815 16.5889C116.917 16.665 117.006 16.7793 117.082 16.9316C117.158 17.084 117.213 17.2956 117.247 17.5664C117.315 18.0996 117.459 18.582 117.679 19.0137C117.907 19.4368 118.195 19.8135 118.542 20.1436C118.618 20.2113 118.737 20.2663 118.897 20.3086C119.058 20.3509 119.287 20.3721 119.583 20.3721H120.154V23H119.583ZM120.154 23C120.053 23 119.943 22.9788 119.824 22.9365C119.706 22.8942 119.596 22.835 119.494 22.7588C119.393 22.6742 119.308 22.5726 119.24 22.4541C119.173 22.3271 119.139 22.1875 119.139 22.0352V21.3369C119.139 21.1761 119.173 21.0365 119.24 20.918C119.308 20.791 119.393 20.6895 119.494 20.6133C119.596 20.5286 119.706 20.4694 119.824 20.4355C119.943 20.3932 120.053 20.3721 120.154 20.3721H123.557C123.506 20.1943 123.425 19.9954 123.315 19.7754C123.205 19.5553 123.083 19.3395 122.947 19.1279C122.812 18.9079 122.672 18.7048 122.528 18.5186C122.384 18.3324 122.262 18.1842 122.16 18.0742L123.48 15.9922C123.65 16.2376 123.815 16.5254 123.976 16.8555C124.145 17.1771 124.293 17.5114 124.42 17.8584C124.555 18.2054 124.661 18.5524 124.737 18.8994C124.822 19.238 124.864 19.5469 124.864 19.8262C124.864 20.0885 124.839 20.3594 124.788 20.6387C124.737 20.918 124.674 21.1973 124.598 21.4766C124.521 21.7559 124.437 22.0267 124.344 22.2891C124.251 22.543 124.162 22.7799 124.077 23H120.154ZM123.227 14.9385L121.132 13.6562L122.49 11.8408L124.585 13.1484L123.227 14.9385Z" fill="white"/>
<g clip-path="url(#clip0_820_2769)">
<path d="M144.05 23.14L140.33 23.67L140.86 20L150.41 10.4599C150.837 10.0625 151.401 9.84614 151.984 9.85643C152.567 9.86671 153.123 10.1028 153.535 10.5151C153.947 10.9273 154.183 11.4835 154.194 12.0664C154.204 12.6493 153.988 13.2134 153.59 13.64L144.05 23.14Z" stroke="white" stroke-width="1.5" stroke-linecap="round" stroke-linejoin="round"/>
<path d="M136.5 4.75H143.5C143.5 4.75 144.25 4.75 144.25 5.5V8C144.25 8 144.25 8.75 143.5 8.75H136.5C136.5 8.75 135.75 8.75 135.75 8V5.5C135.75 5.5 135.75 4.75 136.5 4.75Z" stroke="white" stroke-width="1.5" stroke-linecap="round" stroke-linejoin="round"/>
<path d="M144.25 6.75H146.75C147.148 6.75 147.529 6.90804 147.811 7.18934C148.092 7.47064 148.25 7.85218 148.25 8.25" stroke="white" stroke-width="1.5" stroke-linecap="round" stroke-linejoin="round"/>
<path d="M148.25 22.75V25.75C148.25 26.1478 148.092 26.5294 147.811 26.8107C147.529 27.092 147.148 27.25 146.75 27.25H133.25C132.852 27.25 132.471 27.092 132.189 26.8107C131.908 26.5294 131.75 26.1478 131.75 25.75V8.25C131.75 7.85218 131.908 7.47064 132.189 7.18934C132.471 6.90804 132.852 6.75 133.25 6.75H135.75" stroke="white" stroke-width="1.5" stroke-linecap="round" stroke-linejoin="round"/>
<path d="M136.25 12.75H143.25" stroke="white" stroke-width="1.5" stroke-linecap="round" stroke-linejoin="round"/>
<path d="M136.25 17.25H138.75" stroke="white" stroke-width="1.5" stroke-linecap="round" stroke-linejoin="round"/>
</g>
<defs>
<clipPath id="clip0_820_2769">
<rect width="24" height="24" fill="white" transform="translate(131 4)"/>
</clipPath>
</defs>
</svg>
