<svg width="32" height="32" viewBox="0 0 32 32" fill="none" xmlns="http://www.w3.org/2000/svg">
<path d="M15.6786 9.30974C16.7446 9.30974 17.7867 9.62585 18.673 10.2181C19.5594 10.8103 20.2502 11.6521 20.6581 12.637C21.0661 13.6218 21.1728 14.7055 20.9649 15.7511C20.7569 16.7966 20.2436 17.757 19.4898 18.5107C18.736 19.2645 17.7756 19.7778 16.7301 19.9858C15.6846 20.1938 14.6009 20.087 13.616 19.6791C12.6311 19.2712 11.7894 18.5803 11.1971 17.694C10.6049 16.8076 10.2888 15.7656 10.2888 14.6996C10.2888 13.2701 10.8566 11.8992 11.8674 10.8884C12.8782 9.8776 14.2491 9.30974 15.6786 9.30974ZM21.5584 7.83979H23.5183V9.79973C23.5183 10.0596 23.6216 10.3089 23.8054 10.4927C23.9891 10.6764 24.2384 10.7797 24.4983 10.7797C24.7582 10.7797 25.0075 10.6764 25.1912 10.4927C25.375 10.3089 25.4783 10.0596 25.4783 9.79973V7.83979H27.4382C27.6981 7.83979 27.9474 7.73654 28.1312 7.55276C28.3149 7.36899 28.4182 7.11973 28.4182 6.85982C28.4182 6.59992 28.3149 6.35066 28.1312 6.16688C27.9474 5.9831 27.6981 5.87986 27.4382 5.87986H25.4783V3.91992C25.4783 3.66002 25.375 3.41076 25.1912 3.22698C25.0075 3.0432 24.7582 2.93996 24.4983 2.93996C24.2384 2.93996 23.9891 3.0432 23.8054 3.22698C23.6216 3.41076 23.5183 3.66002 23.5183 3.91992V5.87986H21.5584C21.2985 5.87986 21.0492 5.9831 20.8655 6.16688C20.6817 6.35066 20.5784 6.59992 20.5784 6.85982C20.5784 7.11973 20.6817 7.36899 20.8655 7.55276C21.0492 7.73654 21.2985 7.83979 21.5584 7.83979ZM27.1136 12.7531C26.8573 12.796 26.6285 12.939 26.4776 13.1505C26.3266 13.3621 26.2659 13.625 26.3088 13.8813C26.4083 14.4755 26.4583 15.077 26.4582 15.6795C26.4606 18.3183 25.4907 20.8655 23.7339 22.8345C23.0211 21.8014 22.1162 20.9152 21.0684 20.2241C20.979 20.1648 20.8725 20.1365 20.7654 20.1436C20.6583 20.1507 20.5564 20.1927 20.4755 20.2633C19.1441 21.4154 17.4423 22.0494 15.6817 22.0494C13.921 22.0494 12.2192 21.4154 10.8878 20.2633C10.8064 20.1913 10.7034 20.1484 10.595 20.1413C10.4866 20.1342 10.3788 20.1633 10.2888 20.2241C9.23944 20.9145 8.33314 21.8008 7.6196 22.8345C6.24097 21.281 5.34051 19.3623 5.02652 17.3091C4.71254 15.2559 4.9984 13.1558 5.84972 11.2612C6.70104 9.36667 8.08158 7.75842 9.82527 6.62988C11.569 5.50135 13.6016 4.9006 15.6786 4.89989C16.2811 4.89979 16.8826 4.94978 17.4768 5.04933C17.732 5.0896 17.9928 5.02747 18.2024 4.87648C18.412 4.72548 18.5535 4.49783 18.5961 4.24304C18.6387 3.98826 18.579 3.72694 18.43 3.51594C18.2809 3.30495 18.0546 3.16134 17.8002 3.11635C15.1389 2.66865 12.4042 3.0783 9.99092 4.28615C7.57762 5.49401 5.61062 7.43757 4.37393 9.83623C3.13724 12.2349 2.69484 14.9645 3.11062 17.631C3.5264 20.2974 4.77883 22.7628 6.6871 24.671C8.59536 26.5793 11.0607 27.8317 13.7272 28.2475C16.3936 28.6633 19.1233 28.2209 21.5219 26.9842C23.9206 25.7475 25.8641 23.7805 27.072 21.3672C28.2798 18.9539 28.6895 16.2192 28.2418 13.5579C28.1989 13.3016 28.0559 13.0728 27.8444 12.9219C27.6328 12.7709 27.3699 12.7102 27.1136 12.7531Z" fill="white"/>
</svg>
