<svg width="32" height="32" viewBox="0 0 32 32" fill="none" xmlns="http://www.w3.org/2000/svg">
<path d="M16 1C13.6266 1 11.3066 1.70379 9.33316 3.02236C7.35977 4.34094 5.8217 6.21508 4.91345 8.4078C4.0052 10.6005 3.76756 13.0133 4.23058 15.3411C4.6936 17.6689 5.83649 19.807 7.51472 21.4853C9.19295 23.1635 11.3311 24.3064 13.6589 24.7694C15.9867 25.2324 18.3995 24.9948 20.5922 24.0865C22.7849 23.1783 24.6591 21.6402 25.9776 19.6668C27.2962 17.6934 28 15.3734 28 13C27.9966 9.81843 26.7313 6.76814 24.4816 4.51843C22.2319 2.26872 19.1816 1.00336 16 1ZM9.77847 21.0192C10.4462 19.9749 11.3662 19.1154 12.4535 18.5201C13.5407 17.9247 14.7604 17.6127 16 17.6127C17.2396 17.6127 18.4593 17.9247 19.5466 18.5201C20.6338 19.1154 21.5538 19.9749 22.2215 21.0192C20.4427 22.4027 18.2535 23.1538 16 23.1538C13.7465 23.1538 11.5573 22.4027 9.77847 21.0192ZM12.3077 12.0769C12.3077 11.3467 12.5242 10.6328 12.93 10.0256C13.3357 9.41839 13.9123 8.94514 14.587 8.66567C15.2617 8.38621 16.0041 8.31309 16.7203 8.45556C17.4366 8.59803 18.0945 8.94969 18.6109 9.46607C19.1272 9.98244 19.4789 10.6404 19.6214 11.3566C19.7638 12.0728 19.6907 12.8152 19.4113 13.4899C19.1318 14.1646 18.6585 14.7412 18.0513 15.147C17.4441 15.5527 16.7303 15.7692 16 15.7692C15.0207 15.7692 14.0816 15.3802 13.3891 14.6878C12.6967 13.9953 12.3077 13.0562 12.3077 12.0769ZM23.5877 19.7396C22.5582 18.2478 21.1106 17.0936 19.4269 16.4223C20.3313 15.71 20.9913 14.7335 21.315 13.6287C21.6387 12.5239 21.6101 11.3457 21.2332 10.2579C20.8562 9.17015 20.1497 8.22687 19.2118 7.55926C18.2739 6.89165 17.1512 6.5329 16 6.5329C14.8488 6.5329 13.7261 6.89165 12.7882 7.55926C11.8503 8.22687 11.1438 9.17015 10.7668 10.2579C10.3899 11.3457 10.3613 12.5239 10.685 13.6287C11.0087 14.7335 11.6687 15.71 12.5731 16.4223C10.8894 17.0936 9.44181 18.2478 8.41231 19.7396C7.11143 18.2767 6.26116 16.469 5.9639 14.534C5.66664 12.5991 5.93506 10.6195 6.73683 8.83357C7.53861 7.04766 8.83955 5.53159 10.483 4.46793C12.1265 3.40426 14.0424 2.83836 16 2.83836C17.9576 2.83836 19.8735 3.40426 21.517 4.46793C23.1605 5.53159 24.4614 7.04766 25.2632 8.83357C26.0649 10.6195 26.3334 12.5991 26.0361 14.534C25.7388 16.469 24.8886 18.2767 23.5877 19.7396Z" fill="#3C4F4F"/>
</svg>
